<?xml version="1.0" encoding="UTF-8"?>
<svg xmlns="http://www.w3.org/2000/svg" xmlns:xlink="http://www.w3.org/1999/xlink" width="250px" height="250px" viewBox="0 0 250 250" version="1.1">
<g id="surface1">
<path style=" stroke:none;fill-rule:evenodd;fill:rgb(10.196078%,73.72549%,99.607843%);fill-opacity:1;" d="M 125 125 C 125 107.742188 138.992188 93.75 156.25 93.75 C 173.507812 93.75 187.5 107.742188 187.5 125 C 187.5 142.257812 173.507812 156.25 156.25 156.25 C 138.992188 156.25 125 142.257812 125 125 Z M 125 125 "/>
<path style=" stroke:none;fill-rule:evenodd;fill:rgb(3.921569%,81.176471%,51.372549%);fill-opacity:1;" d="M 62.5 187.5 C 62.5 170.242188 76.492188 156.25 93.75 156.25 L 125 156.25 L 125 187.5 C 125 204.757812 111.007812 218.75 93.75 218.75 C 76.492188 218.75 62.5 204.757812 62.5 187.5 Z M 62.5 187.5 "/>
<path style=" stroke:none;fill-rule:evenodd;fill:rgb(100%,44.705882%,38.431373%);fill-opacity:1;" d="M 125 31.25 L 125 93.75 L 156.25 93.75 C 173.507812 93.75 187.5 79.757812 187.5 62.5 C 187.5 45.242188 173.507812 31.25 156.25 31.25 Z M 125 31.25 "/>
<path style=" stroke:none;fill-rule:evenodd;fill:rgb(94.901961%,30.588235%,11.764706%);fill-opacity:1;" d="M 62.5 62.5 C 62.5 79.757812 76.492188 93.75 93.75 93.75 L 125 93.75 L 125 31.25 L 93.75 31.25 C 76.492188 31.25 62.5 45.242188 62.5 62.5 Z M 62.5 62.5 "/>
<path style=" stroke:none;fill-rule:evenodd;fill:rgb(63.529412%,34.901961%,100%);fill-opacity:1;" d="M 62.5 125 C 62.5 142.257812 76.492188 156.25 93.75 156.25 L 125 156.25 L 125 93.75 L 93.75 93.75 C 76.492188 93.75 62.5 107.742188 62.5 125 Z M 62.5 125 "/>
</g>
</svg>
