<?xml version="1.0" encoding="UTF-8"?>
<svg xmlns="http://www.w3.org/2000/svg" xmlns:xlink="http://www.w3.org/1999/xlink" width="250px" height="250px" viewBox="0 0 250 286" version="1.1">
<g id="surface1">
<path style=" stroke:none;fill-rule:nonzero;fill:rgb(91.372549%,79.215686%,19.607843%);fill-opacity:1;" d="M 20.933594 256.042969 L 0 0.476562 L 250 0.992188 L 227.863281 256.042969 L 125.945312 285.523438 Z M 20.933594 256.042969 "/>
<path style=" stroke:none;fill-rule:nonzero;fill:rgb(100%,87.058824%,14.509804%);fill-opacity:1;" d="M 125.945312 260.839844 L 125.945312 24.816406 L 228.894531 25.160156 L 210.535156 236.328125 Z M 125.945312 260.839844 "/>
<path style=" stroke:none;fill-rule:nonzero;fill:rgb(100%,100%,100%);fill-opacity:1;" d="M 114.917969 52.839844 L 87.703125 52.839844 L 87.703125 209.933594 L 66.53125 205.90625 L 66.53125 184.757812 L 41.332031 180.730469 L 41.332031 228.058594 L 114.917969 247.191406 Z M 135.335938 52.839844 L 210.683594 52.839844 L 205.644531 82.949219 L 164.101562 82.949219 L 164.101562 132.359375 L 205.644531 132.359375 L 200.605469 232.085938 L 135.335938 247.191406 L 135.335938 215.976562 L 179.433594 200.871094 L 181.980469 159.582031 L 135.335938 166.332031 Z M 135.335938 52.839844 "/>
</g>
</svg>
