<?xml version="1.0" encoding="UTF-8"?>
<svg xmlns="http://www.w3.org/2000/svg" xmlns:xlink="http://www.w3.org/1999/xlink" width="250px" height="250px" viewBox="0 0 250 250" version="1.1">
<g id="surface1">
<path style=" stroke:none;fill-rule:nonzero;fill:rgb(0%,0%,0%);fill-opacity:1;" d="M 125 23.4375 C 69 23.4375 23.4375 69 23.4375 125 C 23.4375 181 69 226.5625 125 226.5625 C 181 226.5625 226.5625 181 226.5625 125 C 226.5625 69 181 23.4375 125 23.4375 Z M 125 39.0625 C 172.382812 39.0625 210.9375 77.617188 210.9375 125 C 210.9375 172.382812 172.382812 210.9375 125 210.9375 C 77.617188 210.9375 39.0625 172.382812 39.0625 125 C 39.0625 77.617188 77.617188 39.0625 125 39.0625 Z M 158.371094 78.71875 C 157.800781 78.734375 138.734375 77.667969 127.546875 110.472656 C 124.515625 107.980469 110.160156 90.863281 94.269531 102.707031 C 88.566406 106.972656 84.796875 117.140625 93.367188 126.695312 C 98.46875 132.15625 101.410156 134.320312 100.066406 138.6875 C 97.308594 147.65625 83.34375 143.542969 84.71875 139.097656 C 85.125 137.769531 85.773438 137.75 86.609375 135.164062 C 88.9375 127.539062 78.445312 123.808594 76.1875 131.074219 C 74.890625 135.308594 76.902344 142.957031 87.738281 146.300781 C 100.425781 150.199219 111.164062 143.285156 112.6875 134.277344 C 113.65625 128.636719 111.101562 124.449219 106.429688 119.050781 L 102.628906 114.835938 C 100.324219 112.515625 99.53125 108.597656 101.914062 105.589844 C 103.921875 103.042969 106.785156 101.96875 111.480469 103.242188 C 118.332031 105.101562 121.386719 109.855469 126.480469 113.691406 C 126.113281 114.894531 123.472656 123.421875 121.003906 138.367188 C 117.363281 157.476562 114.570312 167.964844 107.34375 173.980469 C 105.890625 175.035156 103.808594 176.585938 100.675781 176.695312 C 100.089844 176.71875 96.425781 175.851562 100.066406 172.929688 C 104.652344 170.421875 102.167969 162.460938 95.582031 162.6875 C 92.613281 162.78125 88.101562 165.566406 88.273438 170.683594 C 88.445312 175.964844 93.363281 179.929688 100.785156 179.671875 C 104.753906 179.539062 113.601562 177.933594 122.328125 167.558594 C 134.320312 153.496094 136.605469 136.796875 139.847656 118.882812 C 155.402344 120.726562 163.097656 113.515625 163.207031 108.140625 C 163.371094 100.828125 154.769531 101.082031 153.566406 106.550781 C 152.984375 109.207031 157.617188 111.601562 154.007812 113.9375 C 151.453125 115.59375 146.863281 116.757812 140.410156 115.8125 C 143.511719 98.703125 146.164062 81.933594 158.140625 81.542969 C 158.960938 81.496094 161.949219 81.589844 162.019531 83.558594 C 162.058594 85.183594 159.972656 86.46875 160.050781 89.234375 C 160.167969 92.375 162.546875 94.425781 166 94.300781 C 170.617188 94.136719 171.9375 89.652344 171.859375 87.339844 C 171.664062 81.902344 165.941406 78.476562 158.371094 78.71875 Z M 158.371094 78.71875 "/>
</g>
</svg>
